<svg xmlns="http://www.w3.org/2000/svg" viewBox="0 0 1224 792"><defs><style>.cls-1{fill:#29adc5;}</style></defs><title>Artboard 1 copy</title><g id="Artwork"><circle class="cls-1" cx="724.53" cy="66.21" r="25.23"/><circle class="cls-1" cx="239.29" cy="542.85" r="25.23"/><path class="cls-1" d="M703.37,79.93S608-47.3,487.77,106.65c0,0,59.42-106.41,166.11-101.28,0,0,70.65,3.11,94.33,52.2"/><path class="cls-1" d="M262.35,554.32S199.86,700.56,393.28,727.67c0,0-121.86,1.75-170.77-93.21,0,0-32.63-62.74-2-107.79"/><circle class="cls-1" cx="904.04" cy="697.15" r="25.23" transform="matrix(0.5, -0.87, 0.87, 0.5, -151.73, 1131.5)"/><path class="cls-1" d="M902.74,672s157.89-19,84.66-200.07c0,0,62.44,104.67,4.66,194.5,0,0-38,59.63-92.37,55.59"/><path class="cls-1" d="M619,91.45c-192,0-347.68,155.66-347.68,347.68S427,786.82,619,786.82,966.68,631.15,966.68,439.13,811,91.45,619,91.45Zm89.72,563.71L616.89,358.39,525.06,655.15,409.93,294.58h17.22l97.57,304.19L616.55,300l92.17,298.79,97.91-304.19h17.22Z"/></g></svg>