<svg xmlns="http://www.w3.org/2000/svg" viewBox="0 0 1224 792"><defs><style>.cls-1{fill:#fff;}</style></defs><title>Artboard 1</title><g id="Artwork"><circle class="cls-1" cx="719.36" cy="66.21" r="25.23"/><circle class="cls-1" cx="234.12" cy="542.85" r="25.23"/><path class="cls-1" d="M698.2,79.93S602.8-47.3,482.61,106.65c0,0,59.42-106.41,166.11-101.28,0,0,70.65,3.11,94.33,52.2"/><path class="cls-1" d="M257.18,554.32S194.7,700.56,388.12,727.67c0,0-121.86,1.75-170.77-93.21,0,0-32.63-62.74-2-107.79"/><circle class="cls-1" cx="898.88" cy="697.15" r="25.23" transform="matrix(0.5, -0.87, 0.87, 0.5, -154.31, 1127.03)"/><path class="cls-1" d="M897.58,672s157.89-19,84.66-200.07c0,0,62.44,104.67,4.66,194.5,0,0-38,59.63-92.37,55.59"/><path class="cls-1" d="M613.83,91.45c-192,0-347.68,155.66-347.68,347.68S421.81,786.82,613.83,786.82,961.52,631.15,961.52,439.13,805.85,91.45,613.83,91.45Zm89.72,563.71L611.72,358.39,519.89,655.15,404.76,294.58H422l97.57,304.19L611.39,300l92.17,298.79,97.91-304.19h17.22Z"/></g></svg>